<?xml version="1.0" standalone="no"?><!DOCTYPE svg PUBLIC "-//W3C//DTD SVG 1.1//EN" "http://www.w3.org/Graphics/SVG/1.1/DTD/svg11.dtd"><svg t="1769474563413" class="icon" viewBox="0 0 1024 1024" version="1.1" xmlns="http://www.w3.org/2000/svg" p-id="8116" xmlns:xlink="http://www.w3.org/1999/xlink" width="200" height="200"><path d="M913.856 396.8a34.112 34.112 0 0 0-53.312-42.56C859.328 355.84 731.84 512 512 512 293.44 512 164.608 355.776 163.456 354.24a34.176 34.176 0 0 0-53.312 42.624c2.112 2.624 21.632 26.304 56.704 55.68L128.64 499.2a34.112 34.112 0 0 0 52.736 43.264l40.32-49.216c25.728 16.704 55.68 33.152 89.728 47.232l-22.72 62.912a34.112 34.112 0 0 0 64.128 23.232l23.232-64.32c31.36 8.448 65.408 14.144 101.824 16.512v69.696a34.112 34.112 0 1 0 68.224 0V578.752a521.6 521.6 0 0 0 103.616-17.024l23.488 64.192a34.112 34.112 0 0 0 64-23.424l-22.912-62.72c32.32-13.44 60.736-29.12 85.504-45.056l40.128 49.6a34.112 34.112 0 1 0 52.992-42.944l-37.952-46.912c36.48-30.272 56.704-54.912 58.88-57.6z" fill="#D5DCE8" p-id="8117"></path></svg>